<svg width="225" height="21" viewBox="0 0 225 21" fill="none" xmlns="http://www.w3.org/2000/svg">
<g clip-path="url(#clip0_0_252)">
<path d="M13.5516 20.1447L11.0433 20.8058L5.57739 12.5613L2.5075 12.4836L2.65725 20.4558L0.186371 20.6502V0.505789L4.97839 0.35023C7.14977 0.272452 8.83446 0.778012 9.99502 1.78912C11.1556 2.83912 11.7546 4.23913 11.7546 5.91135C11.7546 7.03913 11.3802 8.12801 10.6689 9.2169C9.95759 10.3447 8.94677 11.2002 7.59902 11.7447V11.8225L13.5516 20.1447ZM2.61982 1.94468L2.47006 11.1225L6.21382 10.9669C7.56158 10.578 9.1714 8.94467 9.1714 6.53356C9.1714 3.85023 7.4867 2.10024 4.67888 2.02246L2.61982 1.94468ZM25.1947 20.8058C19.8037 20.8058 15.5732 16.6447 15.5732 10.4225C15.5732 4.70578 20.3652 0.0391235 25.7563 0.0391235C31.1847 0.0391235 35.4152 4.23912 35.4152 10.4613C35.3777 16.2169 30.3611 20.8058 25.1947 20.8058ZM25.5691 19.1336C29.7995 19.1336 32.7571 15.8669 32.7571 10.6558C32.7571 5.44467 29.3128 1.71134 25.3819 1.71134C21.1889 1.71134 18.1939 4.93912 18.1939 10.228C18.1939 15.3224 21.713 19.1336 25.5691 19.1336ZM46.01 20.4558L43.5391 20.6502V11.0836L36.2388 0.700233L38.8969 0.35023L45.0366 9.64467L51.3636 0.35023L53.4975 0.700233L45.9726 11.2002L46.01 20.4558ZM70.2696 20.4169L67.6864 20.6891L65.7771 15.3613L56.4551 15.5558L54.5458 20.6502L52.4118 20.4169L60.7604 0.35023L61.8835 0.0780089L70.2696 20.4169ZM61.0225 3.81134L57.1664 13.7669L65.1781 13.9225L61.0225 3.81134ZM78.8428 20.4558L73.7138 20.6113V0.544674L76.1847 0.35023L76.0724 8.86689L76.1473 18.9002L84.3835 18.5891L84.1964 20.4947L78.8428 20.4558ZM135.785 20.4558L133.314 20.6502V2.02246L125.827 2.29467L126.014 0.35023H134.325L143.048 0.155785L142.861 2.2169L135.823 1.94468L135.673 9.33357L135.785 20.4558ZM159.633 20.4169L157.05 20.6891L155.141 15.3613L145.819 15.5558L143.909 20.6502L141.775 20.4169L150.124 0.35023L151.247 0.0780089L159.633 20.4169ZM150.386 3.81134L146.53 13.7669L154.542 13.9225L150.386 3.81134ZM168.206 20.4558L163.077 20.6113V0.544674L165.548 0.35023L165.436 8.82802L165.511 18.8613L173.747 18.5502L173.56 20.4558H168.206ZM180.523 20.4558L177.266 20.6113V0.505789L181.909 0.35023H187.674L187.487 2.29467L179.737 1.98357L179.55 9.60579L186.289 9.41135L185.877 11.3169L179.512 11.1225L179.7 18.8613L188.31 18.5891L188.123 20.4947H180.523V20.4558ZM194.413 20.4558L192.204 20.6502L192.391 0.544674L194.188 0.35023L206.131 15.9058L205.906 0.544674L208.115 0.35023L207.853 20.4558L207.029 20.6113L194.151 4.35579L194.413 20.4558ZM217.849 20.6502C216.725 20.6502 215.602 20.4169 214.517 19.9502C213.431 19.4836 212.607 18.9002 212.008 18.3169L213.206 16.9558C214.704 18.1225 216.314 19.0169 218.485 19.0169C220.881 19.0169 222.528 17.8891 222.528 15.6725C222.528 14.5058 222.117 13.6113 221.368 13.0669C220.619 12.5225 219.571 11.978 218.298 11.4336C215.64 10.3447 212.795 9.2169 212.795 5.52246C212.795 2.5669 215.378 0.194677 218.897 0.194677C220.731 0.194677 222.641 0.739124 223.764 1.59468L223.314 3.34468C222.191 2.80023 220.02 1.98357 218.373 1.98357C216.538 1.98357 215.003 2.87801 215.003 4.82245C215.003 6.0669 215.415 6.96134 216.164 7.50578C216.913 8.08912 217.961 8.63357 219.196 9.17801C221.817 10.3447 224.737 11.278 224.737 14.8947C224.775 18.7058 221.443 20.6502 217.849 20.6502Z" fill="#333333"/>
<path d="M95.2787 0.0776978V20.5721H115.008V0.0776978H95.2787ZM105.125 19.7166C100.108 19.7166 96.0649 15.5166 96.0649 10.3055C96.0649 5.09437 100.108 0.894367 105.125 0.894367C110.141 0.894367 114.185 5.09437 114.185 10.3055C114.185 15.5166 110.141 19.7166 105.125 19.7166ZM97.188 11.9777C97.3752 12.911 98.2737 15.1666 99.8087 14.6221C100.932 14.1944 101.007 13.1055 101.231 11.861C101.418 10.6944 101.718 8.4777 102.092 8.01103C102.13 7.97215 102.092 7.93325 102.055 7.93325C101.156 7.97214 100.557 10.0721 100.22 11.0444C99.584 12.9499 97.6373 13.1055 97.3003 11.9388C97.3003 11.9388 97.188 11.9388 97.188 11.9777ZM112.912 8.67214C112.687 8.16658 112.537 7.97214 112.313 7.50547C112.5 6.96103 112.725 6.22215 112.687 5.91104C112.537 4.58881 110.815 5.98881 111.19 7.69992C111.302 8.16658 111.414 8.51659 111.489 8.8277C110.965 9.91659 110.74 9.72214 110.778 9.33325C110.815 9.06103 110.853 8.51659 110.853 8.51659C111.002 7.46659 110.478 7.38881 110.141 7.62215C109.954 7.73881 109.692 8.1277 109.58 8.36103L109.692 7.85548L108.756 8.24437L108.457 9.83881C108.082 10.7332 107.671 10.8888 107.408 10.8499C107.334 10.811 107.259 10.7721 107.184 10.7333C108.045 9.95548 108.344 9.29437 108.27 8.8277C108.195 8.32215 107.82 8.32215 107.558 8.39992C106.884 8.63326 106.323 9.33325 106.173 10.3055C106.136 10.6166 106.136 10.9277 106.21 11.161C105.611 12.1333 105.574 11.5888 105.649 11.1999C105.836 10.3055 106.435 6.61103 106.435 6.61103L105.499 6.99992C105.499 6.99992 104.938 10.2277 104.713 11.4721C104.264 12.5999 104.151 12.1721 104.226 11.7832C104.376 10.8888 104.601 9.72214 104.601 9.72214L103.702 10.0721C103.702 10.0721 103.627 10.3444 103.552 10.811C103.44 10.461 103.215 10.2277 102.916 10.1888C102.354 10.111 101.755 10.8888 101.568 11.8221C101.381 12.7944 101.681 13.6499 102.242 13.6888C102.654 13.7277 103.066 13.3777 103.328 12.8333C103.478 13.1833 103.852 13.1444 104.077 12.9888C104.301 12.8333 104.526 12.4444 104.676 12.1333C104.75 12.5999 105.125 12.5999 105.387 12.4444C105.799 12.211 106.173 11.6666 106.36 11.4333C106.51 11.7055 106.772 11.861 107.072 11.8221C107.483 11.7833 107.97 11.2388 108.344 10.6166L108.195 11.3555L109.131 10.9666L109.468 9.1777C109.917 8.04992 110.067 8.43881 110.029 8.78881C110.029 8.78881 109.992 9.09993 109.917 9.60548C109.804 10.6555 110.254 10.6944 110.591 10.4999C111.077 10.1888 111.377 9.60547 111.639 9.06103C111.826 9.52769 112.051 9.91659 112.238 10.4999C113.586 14.4277 108.494 14.0388 106.473 14.1166C104.601 14.1944 104.413 15.8666 104.226 17.1499C111.19 17.2277 114.334 11.8999 112.912 8.67214ZM103.403 11.6666C103.365 12.1333 103.066 12.6388 102.804 12.6388C102.542 12.6388 102.354 12.2499 102.429 11.7055C102.504 11.2388 102.729 10.811 102.991 10.811C103.253 10.811 103.44 11.1999 103.403 11.6666ZM107.072 10.4221C107.034 10.3055 107.034 10.1888 107.034 10.0332C107.072 9.56658 107.296 9.06104 107.596 8.98326C107.708 8.94437 107.82 8.98326 107.82 9.1777C107.82 9.60548 107.408 10.111 107.072 10.4221ZM112.163 7.15547C112.126 7.11659 112.126 7.0777 112.126 7.03881C111.564 5.63881 112.313 5.44437 112.388 6.0277C112.388 6.33881 112.313 6.76659 112.163 7.15547ZM106.098 3.14992C105.986 4.04437 105.911 5.91103 104.226 6.18325C101.456 6.64992 97.7496 7.89437 97.1506 10.6944C97.1506 10.7333 97.0383 10.7333 97.0383 10.7333C96.9634 6.33881 100.745 3.14992 106.098 3.14992Z" fill="#FF0000"/>
</g>
<defs>
<clipPath id="clip0_0_252">
<rect width="225" height="21" fill="white"/>
</clipPath>
</defs>
</svg>
